PathFileType	4	(X/Y/Z)	Walk1_0-155.trc
DataRate	CameraRate	NumFrames	NumMarkers	Units	OrigDataRate	OrigDataStartFrame	OrigNumFrames
30	30	6	22	m	30	58	155
Frame#	Time	Hip			RHip			RKnee			RAnkle			RBigToe			RSmallToe			RHeel			LHip			LKnee			LAnkle			LBigToe			LSmallToe			LHeel			Neck			Head			Nose			RShoulder			RElbow			RWrist			LShoulder			LElbow			LWrist		
		X1	Y1	Z1	X2	Y2	Z2	X3	Y3	Z3	X4	Y4	Z4	X5	Y5	Z5	X6	Y6	Z6	X7	Y7	Z7	X8	Y8	Z8	X9	Y9	Z9	X10	Y10	Z10	X11	Y11	Z11	X12	Y12	Z12	X13	Y13	Z13	X14	Y14	Z14	X15	Y15	Z15	X16	Y16	Z16	X17	Y17	Z17	X18	Y18	Z18	X19	Y19	Z19	X20	Y20	Z20	X21	Y21	Z21	X22	Y22	Z22
59	1.9666666666666663	-1.4270673973754073	0.8665309091414957	0.3441664098516972	-1.4221885250634219	0.8476713641091196	0.4496362622295155	-1.3098146265609856	0.5038608358267601	0.4802873592108807	-1.653955844968652	0.26194980307631144	0.45031652668487926	-1.6067125146255006	0.04663505286642538	0.47014015914675045	-1.637566988809232	0.07316212865560183	0.5090372894190897	-1.739155682893802	0.2505472116881264	0.44500171713597547	-1.4184730454849772	0.8490491985244877	0.23426106578205616	-1.3312214215634783	0.49209068567891356	0.26025779580404673	-1.3553277122392984	0.10097219365808797	0.2846379476225779	-1.1362031836911368	0.036743031397750495	0.2990755277096614	-1.1780283498035742	0.031163236656335167	0.23831099102025072	-1.3975763405625843	0.023378528259999306	0.2952472858318161	-1.467008675874132	1.5539854726140494	0.32230030610048377	-1.4267208984057678	1.8071614782134848	0.33184587769187485	-1.3184819053196342	1.6740306045012963	0.33558274469186544	-1.5002727445554243	1.438733196639369	0.5107497452002261	-1.4327074504964918	1.118820439559439	0.5821345369809982	-1.3710917296670129	0.8681967984516724	0.6101867101541587	-1.5130744929965705	1.431792161622771	0.11515425408903414	-1.4558666848478339	1.1133577273286832	0.10104853198579465	-1.3961442027288458	0.8659969878559651	0.07543112255817151
60	2.0	-1.3941079769978424	0.8741067333722102	0.342193516406099	-1.3837772216319804	0.8541768442871295	0.44957817901317204	-1.2331144519214408	0.5248293512888451	0.4733953574799253	-1.5644350173453814	0.2686450994003909	0.44878907810361124	-1.4964375178123148	0.06754650741630258	0.4755339744389193	-1.526672713390944	0.09257334308450696	0.5149238110039471	-1.6464363345344348	0.2541707086212025	0.44519436133159923	-1.3891321284120843	0.8528816649033312	0.23334665139497313	-1.3265672263573176	0.4891771719957741	0.25658577408306543	-1.3568815552024605	0.10054497219982077	0.28463446072319504	-1.1370015667483104	0.03689566245951923	0.3001667139739276	-1.1792659144514106	0.03241404226632494	0.23847552576866524	-1.3990543840535485	0.025634478287327796	0.2935266952714141	-1.4313543994587894	1.5619458751619184	0.32069666162684135	-1.389106545659848	1.8152892993498053	0.3315197347114345	-1.2819754201594589	1.6805253774676265	0.3329310456024869	-1.4672498409147916	1.4458920910159536	0.5109275626595374	-1.4114181840388198	1.1244821525332571	0.5796184240915927	-1.364892213375323	0.871995816359777	0.6083787693996926	-1.4756022119032095	1.4403170456691283	0.11352563986950405	-1.4104726921210813	1.1224336091029037	0.09709591961928002	-1.3327459455166986	0.8786458271414492	0.07484208294404222
61	2.033333333333333	-1.362342473436954	0.8810000606871894	0.34053423559260076	-1.3467715239459739	0.8595002272591779	0.44985014508864074	-1.1667508074857296	0.5452332117175398	0.4654297339428	-1.4686751499102118	0.2634782354025716	0.4465935375360555	-1.3720801351149925	0.08541804833641675	0.4773688119413147	-1.4045949203150012	0.10666502133454162	0.5177515614049519	-1.5452853141955945	0.24085696210358842	0.4452546499528532	-1.3606945112540372	0.8560192439392209	0.23284069354349324	-1.320407556141685	0.48740176639712646	0.2549604496304745	-1.3578239456629122	0.10059741608119313	0.2851590163197703	-1.137480852874427	0.0361974534475	0.30089915846304527	-1.1802879890795808	0.03270911892151001	0.23898172912973448	-1.4001816441488562	0.027540718736245987	0.2925658284213355	-1.3955681999020664	1.5686354875785753	0.3194052121526366	-1.3509565654519708	1.8225131354580097	0.33263698025780625	-1.245131112883064	1.6857659218410654	0.3310767804763164	-1.4342080941352529	1.4517061323716396	0.5112118625695583	-1.3930096419984985	1.1309694072443366	0.5757505836645722	-1.3572770650282961	0.8773722423742415	0.6064769858566184	-1.438138143767478	1.4477306617416552	0.11261621195926474	-1.3654773763135253	1.130638266265248	0.09060892823565213	-1.2701950149885617	0.8925271731680424	0.0745456871551481
62	2.066666666666667	-1.330890016703822	0.8864528001307608	0.33914697285654205	-1.3106692672545313	0.8636136743630506	0.4501480051237395	-1.112063389874906	0.562487696385621	0.4569313458255248	-1.3677786748976073	0.24802663724475488	0.4442171337628623	-1.2412253122689032	0.09641771831702164	0.4748008154290857	-1.2768745162115804	0.11273273053491711	0.5166265027899354	-1.4370757567928278	0.21400545747086458	0.44531523068436546	-1.3323828097005328	0.8583869554458151	0.23275260998969666	-1.31149617304611	0.48614964084078005	0.25530635394624723	-1.3576586325104418	0.1006959029582647	0.2866492605581434	-1.1378665295332662	0.03416213593732277	0.3009101522758169	-1.1816185045194787	0.03140407919086473	0.2400144697782226	-1.4006311390683197	0.028578120508613216	0.29264029035268196	-1.3594077497620918	1.573468696815546	0.3182296623029283	-1.3127048867942293	1.8278625558536032	0.3341345917918226	-1.2079034446063175	1.6890350301784882	0.330150327485098	-1.4008414913624505	1.4555847182189203	0.511255002020562	-1.376348400397198	1.1374635251303558	0.5707617045753287	-1.3476700676650175	0.882934863899169	0.6046433267248593	-1.4006757127996814	1.4533306895390528	0.11204675705819035	-1.3221289801480358	1.136856906153961	0.08279262011247171	-1.208861121266179	0.9064623752355914	0.07463750621202149
63	2.1	-1.2990931883849224	0.8899182077242527	0.337872629957813	-1.27521245528672	0.8664999860632625	0.4501067009459019	-1.0683292979598158	0.5743648166262832	0.4482298805247832	-1.2627145565864488	0.22554836265752312	0.44191796431992153	-1.1081200712253263	0.10051289605308	0.46839979366311985	-1.146142762130499	0.11132285369966259	0.5118264476450588	-1.3232517751019195	0.17895116227140817	0.44503417286043223	-1.3038681544166204	0.8599441891676843	0.23292142991819148	-1.299874597151329	0.4846054026587125	0.2570810676564084	-1.3562677756767836	0.10040887527623944	0.2892783855887945	-1.1382537151871392	0.030874470926212524	0.3000466625372499	-1.183541252191315	0.028560000565043122	0.24160501145636978	-1.4003658351077313	0.02861059635766084	0.29388964061712736	-1.3226079267493196	1.5762095413476624	0.31718224031176157	-1.2745245635146012	1.830845773249318	0.3354250559165603	-1.170241372536587	1.6899226399314182	0.33005270305993034	-1.3667994247804056	1.4573194080751104	0.5108642029667931	-1.3592981345673913	1.1425706043797885	0.5658045646475418	-1.3352907525207616	0.8873395714977352	0.6029449845216104	-1.3630683655672073	1.4567672193440409	0.11156162423067334	-1.2809199517623888	1.1405900509662026	0.07509855072976067	-1.1489028346343446	0.9195114592490582	0.07524847524547121
64	2.1333333333333333	-1.2664483789117706	0.8911004182180894	0.33646156728422416	-1.2402437726061195	0.8678087379386249	0.4493905914563504	-1.0331498136874027	0.5792223140418178	0.4395208898517722	-1.1548976467499925	0.20000977855654992	0.4394055292257224	-0.9754642571763452	0.10166609989539475	0.4597379770423105	-1.0145671752433192	0.10667923543683053	0.5044276965854131	-1.2057695012909249	0.14162648704545633	0.44334239696965627	-1.2749014528630098	0.8603721468678693	0.23307009745025864	-1.286229306751496	0.4823211857104255	0.259712549061196	-1.3542405280799987	0.09939044539864943	0.2924610515534465	-1.138660429194476	0.02688774622917232	0.2984228413028683	-1.1859525791594987	0.024837070430557953	0.24358273173060296	-1.3999232252417344	0.02787016225224207	0.2961169463905076	-1.2850463407144475	1.5768377202945887	0.3163981738683315	-1.2364662308366983	1.8313955558173811	0.3364135523116886	-1.1320273450323022	1.688324257696627	0.3304483269719711	-1.3317947564705261	1.4570021073542307	0.5100887521622175	-1.3395783815858453	1.1452042965296907	0.5618847705727407	-1.3193505468448266	0.8896764244572569	0.6014685476457994	-1.3251190197921412	1.4579418441529914	0.11107980931800114	-1.2412626629797112	1.141974098190116	0.06889367745391334	-1.090652808795937	0.931023559533551	0.07636786486491429
